<?xml version="1.0" encoding="utf-8"?>
<!-- Generator: Adobe Illustrator 24.1.1, SVG Export Plug-In . SVG Version: 6.00 Build 0)  -->
<svg version="1.1" id="Layer_1" xmlns="http://www.w3.org/2000/svg" xmlns:xlink="http://www.w3.org/1999/xlink" x="0px" y="0px"
	 viewBox="0 0 512 512" style="enable-background:new 0 0 512 512;" xml:space="preserve">
<style type="text/css">
	.st0{fill:#333333;}
</style>
<g id="XMLID_2_">
	<path id="XMLID_8_" class="st0" d="M55.1,100.7v264.3c122.7,0,145.5,14.9,188.8,37v-265C221.8,114.8,189.5,100.7,55.1,100.7z
		 M456.2,100.7c-134.5,0-167.5,14.9-188.8,37v264.3c43.3-22,66.1-37,188.8-37V100.7z M0,128.2v283.1h224.1
		C188,394,162,383.8,55.1,383.8H37v-18.1V128.2H0z M475,128.2v236.7V383h-18.1c-107,0-132.9,10.2-169.1,27.5H512V127.4h-37V128.2z"
		/>
</g>
</svg>
